<?xml version="1.0" encoding="utf-8"?>
<!-- Generator: Adobe Illustrator 22.1.0, SVG Export Plug-In . SVG Version: 6.00 Build 0)  -->
<svg version="1.1" id="Layer_1" xmlns="http://www.w3.org/2000/svg" xmlns:xlink="http://www.w3.org/1999/xlink" x="0px" y="0px"
	 viewBox="0 0 500 500" style="enable-background:new 0 0 500 500;" xml:space="preserve">
<style type="text/css">
	.st0{fill:#EB1C24;}
</style>
<g>
	<path class="st0" d="M92.6,354.7H112c24.8,60.6,58.4,103.2,83.2,103.8c14.9,0.4,23-3.8,31.7-8.3c2.5-1.3,5.1-2.6,7.9-3.8
		c1.5-0.7,3.2-1,5.1-1c5.4,0,11.9,2.5,19.4,5.5c8.8,3.4,18.8,7.3,30,8.4c1,0.1,2,0.1,3,0.1c23.6,0,47.3-25.2,69.4-52.4
		c8.6-10.6,18.7-29.9,27.1-52.3h19.1v-24.1H92.6V354.7z"/>
	<path class="st0" d="M402,239.7c-14.8-45.9-39.1-62.4-73.2-73.7c-7.8-2.6-16.7-3.9-26.6-3.9c-19.4,0-38.4,4.8-51,8.1l-1.7,0.4
		c-0.4-3.6-0.6-7.5-0.8-11.4c3.1,0.3,6.4,0.5,9.7,0.5c37.3,0,80.8-19,108.3-47.3C386.9,91.3,397.2,67,396.5,42c0-0.6-0.4-1-1-1
		c-7.4-0.6-14.7-1-21.7-1c-72.7,0-106.9,33.1-122.9,63.2c2.2-16,5.7-28,9.9-34.2c0.2-0.3,0.2-0.6,0.2-0.9c-0.1-0.3-0.3-0.5-0.5-0.7
		l-14.3-8.3c-0.4-0.2-0.9-0.2-1.2,0.1c-4.4,3.7-24.7,62.9-9.7,112.7c-13.3-3.2-25.9-4.8-37.7-4.8c-33.8,0-61.1,13.4-79.1,38.7
		c-7.3,10.3-12.6,21.8-16.2,33.8h-9.8v24.1h315.3v-24.1L402,239.7L402,239.7z"/>
	<path class="st0" d="M116.8,290.2c-0.9-1.1-2.3-2.2-4.1-2.2c-2.2,0-3.3,1.2-3.3,2.4c0,2.2,1.8,2.4,4.4,3.4c2.5,0.9,6.3,2.6,6.3,7.4
		c0,3.6-2.7,7.6-8.3,7.6c-1.1,0-5.2-0.1-7.9-3.9l3.3-3.5c1.1,1.8,2.8,2.8,4.7,2.8c1.9,0,3.3-1,3.3-2.7c0-2.2-1.6-2.7-4.2-3.6
		c-2.6-0.8-6.4-2.4-6.4-7.1c0-4.1,3.3-7.4,8.1-7.4c3.7,0,6.2,2.2,7.4,3.5L116.8,290.2z"/>
	<path class="st0" d="M123.4,283.9c1.2-0.1,4.1-0.2,5.8-0.2c8.2,0,9.8,4.8,9.8,8c0,4.2-3,8-9.2,8c-0.5,0-1,0-1.4-0.1v8.4l-5,0.4
		V283.9z M128.4,295c0.5,0.1,0.9,0.1,1.3,0.1c3.4,0,4.2-1.9,4.2-3.4c0-1.3-0.7-3.3-4-3.3h-1.6L128.4,295L128.4,295z"/>
	<path class="st0" d="M146.9,283.5v20.1h9.8l-1.4,4.6h-13.4v-24.3L146.9,283.5z"/>
	<path class="st0" d="M164.1,308l-5,0.4v-24.5l5-0.4V308z"/>
	<path class="st0" d="M177.8,308l-5,0.4v-19.9h-6.7l1.3-4.6h16.4v4.6h-5.9V308z"/>
	<path class="st0" d="M199.2,296l-2.2,12.7l-4.9-0.6l5.1-25.6l8.8,17.2l8.8-17.2l5.1,25.6l-4.9,0.6l-2.2-12.9l-6.8,13.3L199.2,296z"
		/>
	<path class="st0" d="M233.5,283.3c7.2,0,13.1,5.6,13.1,12.7c0,7.1-5.8,12.7-13.1,12.7c-7.2,0-13.1-5.6-13.1-12.7
		C220.4,289,226.3,283.3,233.5,283.3z M233.5,304c4.4,0,8-3.5,8-7.9c0-4.4-3.6-7.9-8-7.9c-4.4,0-8,3.5-8,7.9
		C225.5,300.4,229.1,304,233.5,304z"/>
	<path class="st0" d="M254.7,308l-5,0.4v-25.9l15.4,15.5v-14.1l5-0.4v26.1l-15.4-15.5C254.7,294.1,254.7,308,254.7,308z"/>
	<path class="st0" d="M286.3,283.3c7.2,0,13,5.6,13,12.7c0,7.1-5.8,12.7-13,12.7c-7.2,0-13.1-5.6-13.1-12.7
		C273.2,289,279,283.3,286.3,283.3z M286.3,304c4.4,0,8-3.5,8-7.9c0-4.4-3.6-7.9-8-7.9c-4.4,0-8,3.5-8,7.9
		C278.2,300.4,281.8,304,286.3,304z"/>
	<path class="st0" d="M320.4,290.7c-2.3-2.2-4.4-2.8-6.2-2.8c-5.2,0-7.9,4-7.9,8.2c0,4.7,3.5,8,7.9,8c1.5,0,3.1-0.4,4.7-1.5v-4.2
		H312l1.4-4.6h10.4v11.2c-3.4,2.8-6.8,3.6-9.6,3.6c-8.3,0-13-6.4-13-12.7c0-7.5,5.9-12.7,12.9-12.7c2,0,5.8,0.4,9.2,3.7L320.4,290.7
		z"/>
	<path class="st0" d="M327.8,284c1.8-0.1,4.7-0.3,6.2-0.3c8.8,0,9.6,5.3,9.6,7.6c0,3.1-1.8,5.2-4.3,6.2l6.2,9.5l-5.1,1.5l-7.7-12.6
		v12l-5,0.4C327.8,308.4,327.8,284,327.8,284z M332.8,294.7h1.8c2.4,0,4-1.4,4-3.2c0-1.2-0.5-3.1-4.4-3.1h-1.4V294.7z"/>
	<path class="st0" d="M349.7,308.7l-5.1-0.9l12.6-25.3l12.6,25.3l-5.2,1l-2.9-6.4h-9L349.7,308.7z M354.6,298.1h5.3l-2.6-5.7
		L354.6,298.1z"/>
	<path class="st0" d="M375.9,296l-2.2,12.7l-4.9-0.6l5.1-25.6l8.8,17.2l8.8-17.2l5.1,25.6l-4.9,0.6l-2.2-12.9l-6.8,13.3L375.9,296z"
		/>
</g>
</svg>
