<?xml version="1.0" encoding="utf-8"?>
<!-- Generator: Adobe Illustrator 22.1.0, SVG Export Plug-In . SVG Version: 6.00 Build 0)  -->
<svg version="1.1" id="Layer_1" xmlns="http://www.w3.org/2000/svg" xmlns:xlink="http://www.w3.org/1999/xlink" x="0px" y="0px"
	 viewBox="0 0 500 500" style="enable-background:new 0 0 500 500;" xml:space="preserve">
<style type="text/css">
	.st0{fill:#39B353;}
	.st1{fill:#EB1C24;}
	.st2{fill:#FFFFFF;}
</style>
<g>
	<path class="st0" d="M346.3,146.2c-28,20.8-101.7,16.4-101.7,16.4s14.1-73.2,42-94.1C328.8,37,388.4,52.1,388.4,52.1
		S385.3,117.2,346.3,146.2z"/>
	<path class="st1" d="M238.4,179.8c-13.1-3.1-25.6-4.7-37.2-4.7c-33.4,0-60.4,13.2-78.2,38.3c-27,38.1-26.3,92.1-14.4,126.2
		c24.9,70.8,62.8,122.7,90.2,123.4c14.7,0.4,22.8-3.8,31.4-8.2c2.5-1.3,5-2.6,7.7-3.8c1.5-0.7,3.1-1,5-1c5.3,0,11.7,2.5,19.2,5.4
		c8.7,3.4,18.5,7.2,29.6,8.3c1,0.1,2,0.1,3,0.1l0,0c23.3,0,46.8-24.9,68.6-51.8c22.4-27.6,55.2-114.9,41.1-161.6
		c-14.6-48.2-39-65-73.6-76.5c-7.7-2.6-16.5-3.9-26.3-3.9c-19.2,0-38,4.8-50.4,8L238.4,179.8z"/>
	<g>
		<circle class="st2" cx="291.9" cy="289.9" r="91.2"/>
	</g>
	<path class="st1" d="M238.4,179.8l12.8-1.5c0.2-5.2,0.6-9.9,1.1-14.3c0.7-7.4,1.9-14.8,3-21.6c1.2-6.3,2.7-13.7,4.6-20.8
		c3-11.8,6.8-23.9,11.4-35.9c3.2-8.4,6.8-16.6,10.5-24.2c1.4-2.8,2.5-4.9,3.3-6.3l3.6-5.6L269.6,37l-3,5.1c-0.3,0.5-0.9,1.7-1.3,2.5
		c-0.9,1.8-2,4.3-3.5,7.5c-3.7,8.5-7,17.5-10,26.7c-4.2,13-7.6,26-10,38.6c-1.6,7.6-2.7,15.5-3.6,22.3c-0.8,7.3-1.7,15.1-2,23.1
		c-0.3,5.1-0.4,10.4-0.3,16.4C236.6,179.5,237.5,179.6,238.4,179.8z"/>
</g>
</svg>
