<?xml version="1.0" encoding="utf-8"?>
<!-- Generator: Adobe Illustrator 22.1.0, SVG Export Plug-In . SVG Version: 6.00 Build 0)  -->
<svg version="1.1" id="Layer_1" xmlns="http://www.w3.org/2000/svg" xmlns:xlink="http://www.w3.org/1999/xlink" x="0px" y="0px"
	 viewBox="0 0 500 500" style="enable-background:new 0 0 500 500;" xml:space="preserve">
<style type="text/css">
	.st0{fill:#FFAC35;}
	.st1{fill:#231F20;}
	.st2{fill:#EB1C24;}
	.st3{fill:#FFFFFF;}
</style>
<g>
	<path class="st0" d="M431.1,222.8h-45.3c-6.7-3.3-15-6.4-24.6-9.1c-0.8-3.4-1.7-6.8-2.8-10.1c10.9,2.9,20.1,6.2,27.4,9.8h40.7h3.2
		c-0.1-15.9-1.4-125.5-10.8-136c-38.7-43.1-123.7-49.2-167.4-49.4c-0.2,0-0.4,0-0.7,0c-0.6,0-1.2,0-1.8,0c-0.6,0-1.2,0-1.8,0
		c-0.2,0-0.4,0-0.7,0c-43.7,0.2-128.7,6.3-167.4,49.4c-10.1,11.3-10.8,136-10.8,136h44c6-3,13.4-5.8,21.8-8.3
		c-1,3.3-1.9,6.7-2.7,10.1c-7.3,2.3-13.8,4.8-19.1,7.5H67.1l-3.3,147.1c2.2-2.1,5.1-3.4,8.4-3.4H426c3.3,0,6.3,1.3,8.4,3.4
		L431.1,222.8z M246.5,132.4c59.4,0,107.8,48.4,107.8,107.8c0,59.4-48.4,107.8-107.8,107.8c-59.5,0-107.8-48.4-107.8-107.8
		C138.7,180.8,187.1,132.4,246.5,132.4z"/>
	<g>
		<path class="st1" d="M176,115.6V50.5C142.8,53.3,114.6,59,99,70.4c-1.3,0.8-2.3,1.6-3,2.3c-1.9,1.7-3.6,3.4-5,5.2
			c-7.7,10.3-4.7,31.6-3.6,37.6L176,115.6L176,115.6z"/>
		<path class="st1" d="M410.7,115.6c1.1-6.1,4.1-27.4-3.6-37.6c-1.4-1.8-3.1-3.6-5-5.2c-0.6-0.8-1.6-1.6-3-2.3
			c-14.9-10.9-41.4-16.6-72.7-19.5v64.7L410.7,115.6L410.7,115.6z"/>
		<circle class="st2" cx="120.8" cy="85.1" r="11.5"/>
		<circle class="st0" cx="153.5" cy="85.1" r="11.5"/>
		<circle class="st2" cx="377.4" cy="85.1" r="11.5"/>
		<circle class="st0" cx="344.7" cy="85.1" r="11.5"/>
	</g>
	<g>
		<circle class="st1" cx="249.1" cy="48.7" r="4.7"/>
		<circle class="st1" cx="230.5" cy="48.7" r="4.7"/>
		<circle class="st1" cx="267.8" cy="48.7" r="4.7"/>
	</g>
	<path class="st1" d="M431.2,225.5l0.7,32.5c28.8-0.3,34.1-33,34.1-33L431.2,225.5z"/>
	<path class="st1" d="M426,380.5H72.2c-6.6,0-11.9,5.2-11.9,11.5v19.7c0,6.4,5.3,11.5,11.9,11.5h6.4c0,0.3-0.1,0.5-0.1,0.8V460
		c0,6.4,5.2,11.5,11.5,11.5h17.3c6.4,0,11.5-5.2,11.5-11.5v-35.9c0-0.3-0.1-0.5-0.1-0.8h6.5c0,0.3-0.1,0.5-0.1,0.8V460
		c0,6.4,5.2,11.5,11.5,11.5H154c6.4,0,11.5-5.2,11.5-11.5v-35.9c0-0.3-0.1-0.5-0.1-0.8h167.4c0,0.3-0.1,0.5-0.1,0.8V460
		c0,6.4,5.2,11.5,11.5,11.5h17.3c6.4,0,11.5-5.2,11.5-11.5v-35.9c0-0.3-0.1-0.5-0.1-0.8h6.5c0,0.3-0.1,0.5-0.1,0.8V460
		c0,6.4,5.2,11.5,11.5,11.5h17.3c6.4,0,11.5-5.2,11.5-11.5v-35.9c0-0.3-0.1-0.5-0.1-0.8h6.4c6.6,0,11.9-5.2,11.9-11.5V392
		C437.9,385.6,432.6,380.5,426,380.5z"/>
	<g>
		<circle class="st3" cx="109.2" cy="290.4" r="27.1"/>
		<circle class="st3" cx="389" cy="290.4" r="27.1"/>
	</g>
	<g>
		<path class="st1" d="M67.1,214.2l0-0.7h1.3c0,0,0-0.8,0-2.3c-2.8-1.7-4.7-4.8-4.7-8.4v-59.2c0-4.5,3-8.2,7-9.4
			c0.1-1.2,0.1-2.3,0.2-3.4c-3.3,0.7-6.2,2.6-8.1,5.3v-11.9H38.7v41.7h21.7v9.6H38.7v41.7h24.1v-6.7C64,211.9,65.4,213.2,67.1,214.2
			z"/>
		<path class="st1" d="M459.5,165.8v-41.7h-24.1V136c-1.9-2.7-4.8-4.6-8.1-5.3c0.1,1.1,0.1,2.3,0.2,3.4c4.1,1.2,7.1,5,7.1,9.4v59.2
			c0,3.5-1.9,6.6-4.7,8.4c0,0.9,0,1.7,0,2.3h1.3l0,0.7c1.6-1,3.1-2.2,4.2-3.8v6.7h24.1v-41.7h-21.7v-9.6L459.5,165.8L459.5,165.8z"
			/>
	</g>
	<path class="st1" d="M66.3,258l0.7-32.5L32.2,225C32.2,225,37.4,257.7,66.3,258z"/>
	<rect x="186.6" y="69" class="st1" width="125" height="41.7"/>
	<g>
		<path class="st3" d="M199.8,86.6c-0.5-0.6-1.3-1.2-2.3-1.2c-1.2,0-1.8,0.7-1.8,1.3c0,1.2,1,1.4,2.4,1.9c1.4,0.5,3.5,1.4,3.5,4.1
			c0,2-1.5,4.3-4.7,4.3c-0.6,0-2.9-0.1-4.4-2.2l1.8-2c0.6,1,1.6,1.5,2.6,1.5c1,0,1.8-0.5,1.8-1.5c0-1.2-0.9-1.5-2.4-2
			c-1.4-0.5-3.6-1.4-3.6-4c0-2.3,1.8-4.1,4.5-4.1c2.1,0,3.5,1.2,4.1,2L199.8,86.6z"/>
		<path class="st3" d="M212.9,86.5c-1-0.9-2.1-1.1-2.9-1.1c-2.4,0-4.4,1.9-4.4,4.4c0,2.6,2.1,4.4,4.5,4.4c0.9,0,2-0.3,2.9-1.1
			l-0.5,3.3c-1.2,0.5-2.2,0.5-2.7,0.5c-3.8,0-7-3-7-7.1c0-4.4,3.6-7.1,7-7.1c0.9,0,1.9,0.2,2.7,0.5L212.9,86.5z"/>
		<path class="st3" d="M217.5,88.4h5.5v-5.3l2.8-0.2v13.7l-2.8,0.2V91h-5.5v5.6l-2.8,0.2V83.1l2.8-0.2V88.4z"/>
		<path class="st3" d="M234.9,82.8c4,0,7.3,3.1,7.3,7.1c0,4-3.3,7.1-7.3,7.1c-4,0-7.3-3.1-7.3-7.1C227.6,85.9,230.9,82.8,234.9,82.8
			z M234.9,94.3c2.5,0,4.5-2,4.5-4.4c0-2.5-2-4.4-4.5-4.4c-2.5,0-4.5,2-4.5,4.4C230.4,92.3,232.4,94.3,234.9,94.3z"/>
		<path class="st3" d="M250.5,82.8c4,0,7.3,3.1,7.3,7.1c0,4-3.3,7.1-7.3,7.1c-4,0-7.3-3.1-7.3-7.1C243.2,85.9,246.5,82.8,250.5,82.8
			z M250.5,94.3c2.5,0,4.5-2,4.5-4.4c0-2.5-2-4.4-4.5-4.4c-2.5,0-4.5,2-4.5,4.4C246,92.3,248.1,94.3,250.5,94.3z"/>
		<path class="st3" d="M262.3,82.9v11.2h5.5l-0.8,2.6h-7.5V83.1L262.3,82.9z"/>
		<path class="st3" d="M273.7,83.1c0.9,0,2.9-0.1,3.4-0.1c4.3,0,5.2,2.1,5.2,3.7c0,1.2-0.6,2.3-1.7,2.8c1.3,0.4,2.4,1.5,2.4,3.3
			c0,2-1.4,3.7-4.8,3.7h-4.4L273.7,83.1L273.7,83.1z M276.5,88.6h1.3c1.2,0,1.8-0.8,1.8-1.5c0-0.7-0.5-1.5-1.8-1.5h-1.2V88.6z
			 M276.5,94.1h1.5c1.8,0,2.1-1.1,2.1-1.6c0-0.8-0.7-1.6-2.1-1.6h-1.5V94.1z"/>
		<path class="st3" d="M294.9,91.9c0,4.1-2.8,5.1-5,5.1c-2.1,0-5-1-5-5.1v-8.8l2.8-0.2V92c0,2.2,1.5,2.3,2.2,2.3
			c0.6,0,2.2-0.2,2.2-2.3v-8.9l2.8-0.2V91.9z"/>
		<path class="st3" d="M303.7,86.6c-0.5-0.6-1.3-1.2-2.3-1.2c-1.2,0-1.8,0.7-1.8,1.3c0,1.2,1,1.4,2.4,1.9c1.4,0.5,3.5,1.4,3.5,4.1
			c0,2-1.5,4.3-4.7,4.3c-0.6,0-2.9-0.1-4.4-2.2l1.8-2c0.6,1,1.6,1.5,2.6,1.5c1,0,1.8-0.5,1.8-1.5c0-1.2-0.9-1.5-2.4-2
			c-1.4-0.5-3.6-1.4-3.6-4c0-2.3,1.8-4.1,4.5-4.1c2.1,0,3.5,1.2,4.1,2L303.7,86.6z"/>
	</g>
	<g>
		<path class="st3" d="M166.6,154v-18.7c0-5.9-5.2-10.7-11.5-10.7H95.9c-6.4,0-11.5,4.8-11.5,10.7v41.6c0,0.3,0,0.7,0.1,1h62.4
			C152.3,169.1,159,161,166.6,154z"/>
	</g>
	<g>
		<path class="st3" d="M402.4,124.6h-59.2c-6.4,0-11.5,4.8-11.5,10.7V159c5.5,5.8,10.4,12.1,14.7,18.9h67.5c0-0.3,0.1-0.7,0.1-1
			v-41.6C413.9,129.4,408.7,124.6,402.4,124.6z"/>
	</g>
</g>
</svg>
