<?xml version="1.0" encoding="utf-8"?>
<!-- Generator: Adobe Illustrator 22.1.0, SVG Export Plug-In . SVG Version: 6.00 Build 0)  -->
<svg version="1.1" id="Layer_1" xmlns="http://www.w3.org/2000/svg" xmlns:xlink="http://www.w3.org/1999/xlink" x="0px" y="0px"
	 viewBox="0 0 500 500" style="enable-background:new 0 0 500 500;" xml:space="preserve">
<style type="text/css">
	.st0{fill:#FFAC35;}
	.st1{fill:#231F20;}
	.st2{fill:#FFFFFF;}
</style>
<g>
	<path class="st0" d="M441.8,209.4h-1.5c-0.4-30.5-2.3-127-11.4-137c-41-45.7-131.2-52.2-177.6-52.4c-0.2,0-0.5,0-0.7,0
		c-0.7,0-1.3,0-1.9,0c-0.6,0-1.3,0-1.9,0c-0.2,0-0.5,0-0.7,0c-46.4,0.2-136.5,6.7-177.6,52.4c-9.2,10.3-11,109.3-11.4,137h-1.5
		l-3.5,105.7h393.2L441.8,209.4z"/>
	<g>
		<circle class="st1" cx="248.7" cy="41.9" r="4.9"/>
		<circle class="st1" cx="228.9" cy="41.9" r="4.9"/>
		<circle class="st1" cx="268.5" cy="41.9" r="4.9"/>
	</g>
	<g>
		<path class="st2" d="M236.7,122.4H97.6c-6.7,0-12.2,4.2-12.2,9.4v45.7c0,5.2,5.5,9.4,12.2,9.4h139.1V122.4z"/>
		<path class="st2" d="M399.8,122.4H260.8V187h139.1c6.7,0,12.2-4.2,12.2-9.4v-45.7C412,126.6,406.6,122.4,399.8,122.4z"/>
	</g>
	<path class="st1" d="M331.9,241.1H165.5c-1.4,0-2.6-1.4-2.6-3.1c0-1.7,1.2-3.1,2.6-3.1h166.3c1.4,0,2.6,1.4,2.6,3.1
		C334.5,239.7,333.3,241.1,331.9,241.1z"/>
	<path class="st1" d="M331.9,255.3H165.5c-1.4,0-2.6-1.4-2.6-3.1s1.2-3.1,2.6-3.1h166.3c1.4,0,2.6,1.4,2.6,3.1
		S333.3,255.3,331.9,255.3z"/>
	<path class="st1" d="M331.9,269.4H165.5c-1.4,0-2.6-1.4-2.6-3.1c0-1.7,1.2-3.1,2.6-3.1h166.3c1.4,0,2.6,1.4,2.6,3.1
		C334.5,268,333.3,269.4,331.9,269.4z"/>
	<path class="st1" d="M331.9,283.6H165.5c-1.4,0-2.6-1.4-2.6-3.1c0-1.7,1.2-3.1,2.6-3.1h166.3c1.4,0,2.6,1.4,2.6,3.1
		C334.5,282.2,333.3,283.6,331.9,283.6z"/>
	<path class="st1" d="M331.9,297.8H165.5c-1.4,0-2.6-1.4-2.6-3.1c0-1.7,1.2-3.1,2.6-3.1h166.3c1.4,0,2.6,1.4,2.6,3.1
		C334.5,296.4,333.3,297.8,331.9,297.8z"/>
	<g>
		<circle class="st2" cx="100.3" cy="246.9" r="28.7"/>
		<circle class="st2" cx="397.1" cy="246.9" r="28.7"/>
	</g>
	<path class="st1" d="M55.5,217.3l0.1-4.2c-2.1-1.9-3.4-4.7-3.4-7.7v-62.8c0-4.7,3.2-8.7,7.5-10c0.1-0.9,0.1-1.8,0.2-2.8
		c0-0.3,0-0.6,0.1-0.9c-3.5,0.7-6.6,2.8-8.6,5.6v-12.6H25.6V166h23v10.2h-23v44.2h25.6v-7.1C52.3,214.9,53.8,216.2,55.5,217.3z"/>
	<rect x="136.1" y="63.4" class="st1" width="225.2" height="44.2"/>
	<g>
		<path class="st2" d="M178.1,80.7c-0.7-0.9-1.8-1.8-3.3-1.8c-1.8,0-2.6,1-2.6,1.9c0,1.8,1.5,1.9,3.5,2.7c2,0.7,5.1,2.1,5.1,5.9
			c0,2.9-2.1,6.1-6.7,6.1c-0.9,0-4.2-0.1-6.3-3.1l2.6-2.8c0.8,1.5,2.3,2.2,3.8,2.2c1.5,0,2.6-0.8,2.6-2.1c0-1.8-1.3-2.1-3.4-2.8
			c-2-0.7-5.1-1.9-5.1-5.7c0-3.3,2.6-5.9,6.5-5.9c3,0,4.9,1.7,5.9,2.8L178.1,80.7z"/>
		<path class="st2" d="M196.8,80.6c-1.5-1.2-3-1.5-4.1-1.5c-3.5,0-6.3,2.7-6.3,6.4c0,3.7,3,6.3,6.4,6.3c1.3,0,2.8-0.4,4.2-1.6
			l-0.6,4.7c-1.7,0.6-3.2,0.7-3.9,0.7c-5.4,0-10.1-4.3-10.1-10.1c0-6.3,5.1-10.1,9.9-10.1c1.3,0,2.7,0.3,3.9,0.7L196.8,80.6z"/>
		<path class="st2" d="M203.5,83.2h7.9v-7.5l4-0.3v19.5l-4,0.3v-8.3h-7.9v8l-4,0.3V75.7l4-0.3V83.2z"/>
		<path class="st2" d="M228.3,75.2c5.8,0,10.4,4.5,10.4,10.1c0,5.6-4.7,10.1-10.4,10.1s-10.4-4.5-10.4-10.1S222.5,75.2,228.3,75.2z
			 M228.3,91.7c3.5,0,6.4-2.8,6.4-6.3c0-3.5-2.9-6.3-6.4-6.3s-6.4,2.8-6.4,6.3C221.9,88.9,224.8,91.7,228.3,91.7z"/>
		<path class="st2" d="M250.7,75.2c5.8,0,10.4,4.5,10.4,10.1c0,5.6-4.7,10.1-10.4,10.1s-10.4-4.5-10.4-10.1S244.9,75.2,250.7,75.2z
			 M250.7,91.7c3.5,0,6.4-2.8,6.4-6.3c0-3.5-2.9-6.3-6.4-6.3s-6.4,2.8-6.4,6.3C244.3,88.9,247.1,91.7,250.7,91.7z"/>
		<path class="st2" d="M267.6,75.4v16h7.8l-1.1,3.7h-10.7V75.7L267.6,75.4z"/>
		<path class="st2" d="M283.8,75.7c1.3,0,4.2-0.1,4.9-0.1c6.2,0,7.4,3,7.4,5.3c0,1.7-0.8,3.2-2.4,4.1c1.9,0.6,3.4,2.2,3.4,4.7
			c0,2.8-2,5.3-6.9,5.3h-6.4V75.7z M287.9,83.6h1.8c1.7,0,2.5-1.2,2.5-2.2c0-1-0.7-2.1-2.6-2.1h-1.8L287.9,83.6L287.9,83.6z
			 M287.9,91.4h2.2c2.6,0,3-1.6,3-2.3c0-1.2-0.9-2.3-3-2.3h-2.2V91.4z"/>
		<path class="st2" d="M314.1,88.2c0,5.9-4.1,7.3-7.1,7.3s-7.1-1.4-7.1-7.3V75.7l4-0.3v13c0,3.1,2.2,3.3,3.1,3.3
			c0.9,0,3.1-0.2,3.1-3.3V75.7l4-0.3V88.2z"/>
		<path class="st2" d="M326.8,80.7c-0.7-0.9-1.8-1.8-3.3-1.8c-1.8,0-2.6,1-2.6,1.9c0,1.8,1.5,1.9,3.5,2.7c2,0.7,5,2.1,5,5.9
			c0,2.9-2.1,6.1-6.7,6.1c-0.9,0-4.2-0.1-6.3-3.1l2.6-2.8c0.8,1.5,2.3,2.2,3.8,2.2c1.5,0,2.6-0.8,2.6-2.1c0-1.8-1.3-2.1-3.4-2.8
			c-2-0.7-5.1-1.9-5.1-5.7c0-3.3,2.6-5.9,6.5-5.9c3,0,4.9,1.7,5.9,2.8L326.8,80.7z"/>
	</g>
	<path class="st1" d="M471.8,166v-44.2h-25.6v12.6c-2-2.9-5.1-4.9-8.6-5.6c0.1,1.2,0.1,2.4,0.2,3.7c4.3,1.3,7.5,5.3,7.5,10v62.8
		c0,3.1-1.3,5.8-3.4,7.7l0.1,4.2c1.7-1,3.1-2.3,4.3-3.9v7.1h25.6v-44.2h-23V166H471.8z"/>
	<rect x="37.6" y="308.1" class="st1" width="422.2" height="17.1"/>
	<path class="st1" d="M459.8,395.3H37.6v17.1h17v3.4c0,6.7,5.5,12.2,12.2,12.2h1.1c0,0.3-0.1,0.6-0.1,0.9v38.1
		c0,6.7,5.5,12.2,12.2,12.2h18.3c6.7,0,12.2-5.5,12.2-12.2v-38.1c0-0.3-0.1-0.6-0.1-0.9h6.9c0,0.3-0.1,0.6-0.1,0.9v38.1
		c0,6.7,5.5,12.2,12.2,12.2h18.3c6.7,0,12.2-5.5,12.2-12.2v-38.1c0-0.3-0.1-0.6-0.1-0.9h177.5c0,0.3-0.1,0.6-0.1,0.9v38.1
		c0,6.7,5.5,12.2,12.2,12.2h18.3c6.7,0,12.2-5.5,12.2-12.2v-38.1c0-0.3-0.1-0.6-0.1-0.9h6.9c0,0.3-0.1,0.6-0.1,0.9v38.1
		c0,6.7,5.5,12.2,12.2,12.2h18.3c6.7,0,12.2-5.5,12.2-12.2v-38.1c0-0.3-0.1-0.6-0.1-0.9h1.1c6.7,0,12.2-5.5,12.2-12.2v-3.4h17
		L459.8,395.3L459.8,395.3z"/>
	<g>
		<path class="st0" d="M82.7,353.8c-1.1-1.4-2.9-2.8-5.2-2.8c-2.8,0-4.1,1.5-4.1,3c0,2.8,2.3,3.1,5.6,4.3c3.1,1.2,8.1,3.3,8.1,9.4
			c0,4.6-3.4,9.7-10.6,9.7c-1.4,0-6.7-0.1-10.1-4.9l4.1-4.5c1.4,2.3,3.6,3.5,6,3.5c2.4,0,4.1-1.2,4.1-3.4c0-2.8-2.1-3.4-5.4-4.5
			c-3.2-1.1-8.2-3.1-8.2-9.1c0-5.2,4.1-9.4,10.4-9.4c4.7,0,7.9,2.7,9.4,4.5L82.7,353.8z"/>
		<path class="st0" d="M91.1,345.8c1.6-0.1,5.2-0.2,7.4-0.2c10.4,0,12.5,6.1,12.5,10.1c0,5.4-3.8,10.1-11.7,10.1
			c-0.6,0-1.2,0-1.8-0.1v10.7l-6.4,0.5L91.1,345.8L91.1,345.8z M97.4,359.9c0.6,0.1,1.1,0.1,1.7,0.1c4.3,0,5.4-2.5,5.4-4.3
			c0-1.6-0.9-4.2-5.1-4.2h-2L97.4,359.9L97.4,359.9z"/>
		<path class="st0" d="M121,345.3v25.6h12.5l-1.8,5.9h-17.1v-30.9L121,345.3z"/>
		<path class="st0" d="M142.9,376.4l-6.4,0.5v-31.1l6.4-0.5V376.4z"/>
		<path class="st0" d="M160.3,376.4l-6.4,0.5v-25.3h-8.5l1.6-5.9h20.8v5.9h-7.6L160.3,376.4L160.3,376.4z"/>
		<path class="st0" d="M187.5,361.2l-2.7,16.2l-6.3-0.8l6.4-32.6l11.2,21.9l11.2-21.9l6.5,32.6l-6.3,0.8l-2.7-16.4l-8.7,16.9
			L187.5,361.2z"/>
		<path class="st0" d="M231.2,345.1c9.2,0,16.6,7.2,16.6,16.2c0,9-7.4,16.2-16.6,16.2c-9.2,0-16.6-7.2-16.6-16.2
			C214.6,352.2,222,345.1,231.2,345.1z M231.2,371.3c5.6,0,10.2-4.5,10.2-10.1c0-5.6-4.6-10.1-10.2-10.1c-5.6,0-10.2,4.5-10.2,10.1
			C221,366.8,225.6,371.3,231.2,371.3z"/>
		<path class="st0" d="M258.1,376.4l-6.4,0.5V344l19.7,19.8v-18l6.4-0.5v33.2l-19.7-19.7V376.4z"/>
		<path class="st0" d="M298.4,345.1c9.2,0,16.6,7.2,16.6,16.2c0,9-7.4,16.2-16.6,16.2c-9.2,0-16.6-7.2-16.6-16.2
			C281.7,352.2,289.2,345.1,298.4,345.1z M298.4,371.3c5.6,0,10.2-4.5,10.2-10.1c0-5.6-4.6-10.1-10.2-10.1
			c-5.6,0-10.2,4.5-10.2,10.1C288.1,366.8,292.7,371.3,298.4,371.3z"/>
		<path class="st0" d="M341.8,354.5c-2.9-2.8-5.6-3.6-7.9-3.6c-6.6,0-10,5-10,10.5c0,6,4.4,10.1,10.1,10.1c1.9,0,4-0.5,5.9-1.9v-5.4
			h-8.7l1.8-5.9h13.3v14.3c-4.3,3.6-8.6,4.6-12.2,4.6c-10.5,0-16.6-8.1-16.6-16.2c0-9.5,7.5-16.1,16.4-16.1c2.6,0,7.4,0.5,11.7,4.8
			L341.8,354.5z"/>
		<path class="st0" d="M351.2,345.9c2.2-0.1,6-0.3,7.9-0.3c11.2,0,12.2,6.7,12.2,9.6c0,3.9-2.3,6.6-5.5,7.9l7.9,12.1l-6.4,1.9
			l-9.8-16v15.3l-6.4,0.5V345.9z M357.6,359.5h2.3c3.1,0,5.1-1.8,5.1-4.1c0-1.5-0.6-4-5.5-4h-1.8V359.5z"/>
		<path class="st0" d="M379.1,377.4l-6.4-1.2l16-32.2l16,32.2l-6.6,1.2l-3.7-8.1h-11.5L379.1,377.4z M385.3,363.9h6.8l-3.4-7.3
			L385.3,363.9z"/>
		<path class="st0" d="M412.4,361.2l-2.7,16.2l-6.3-0.8l6.4-32.6l11.2,21.9l11.2-21.9l6.5,32.6l-6.3,0.8l-2.7-16.4l-8.7,16.9
			L412.4,361.2z"/>
	</g>
</g>
</svg>
