<?xml version="1.0" encoding="utf-8"?>
<!-- Generator: Adobe Illustrator 22.1.0, SVG Export Plug-In . SVG Version: 6.00 Build 0)  -->
<svg version="1.1" id="Layer_1" xmlns="http://www.w3.org/2000/svg" xmlns:xlink="http://www.w3.org/1999/xlink" x="0px" y="0px"
	 viewBox="0 0 500 500" style="enable-background:new 0 0 500 500;" xml:space="preserve">
<style type="text/css">
	.st0{fill:#FFAC35;}
	.st1{fill:#231F20;}
	.st2{fill:#EB1C24;}
	.st3{fill:#7FB3D2;}
	.st4{fill:#FFFFFF;}
</style>
<g>
	<g>
		<path class="st0" d="M400.9,90.6c-36.3-40.5-116.1-46.2-157.1-46.4c-0.2,0-0.4,0-0.6,0c-0.6,0-1.2,0-1.7,0c-0.6,0-1.1,0-1.7,0
			c-0.2,0-0.4,0-0.6,0c-41,0.2-120.8,5.9-157.1,46.4c-3.3,3.7-5.5,20.2-7,40.3h333C406.4,110.8,404.2,94.3,400.9,90.6z"/>
		<path class="st1" d="M74.9,138.4c-2.8,37.6-3.1,87.4-3.1,87.4h41.3c24.6-12.3,72.8-20.6,128.3-20.6c55.5,0,103.7,8.3,128.3,20.6
			H408h3c-0.1-9.4-0.6-53.5-3.1-87.4H74.9z"/>
		<path class="st0" d="M74.2,367.4h334.5c2.5,0,4.8,0.8,6.7,2.1l-3-135h-42.5c-24.6-12.3-72.8-20.6-128.3-20.6
			c-55.5,0-103.7,8.3-128.3,20.6H70.6l-3,135C69.4,368.3,71.7,367.4,74.2,367.4z"/>
		<g>
			<path class="st1" d="M172.8,126.4V65.3c-31.1,2.6-57.6,7.9-72.2,18.6c-1.3,0.7-2.2,1.5-2.8,2.2c-1.8,1.5-3.4,3.2-4.7,4.9
				c-7.2,9.6-4.4,29.6-3.4,35.3L172.8,126.4L172.8,126.4z"/>
			<path class="st1" d="M393.1,126.4c1-5.7,3.9-25.7-3.4-35.3c-1.3-1.7-2.9-3.4-4.7-4.9c-0.6-0.7-1.5-1.5-2.8-2.2
				c-14-10.2-38.9-15.6-68.2-18.3v60.7L393.1,126.4L393.1,126.4z"/>
			<circle class="st2" cx="121" cy="97.8" r="10.8"/>
			<circle class="st0" cx="151.7" cy="97.8" r="10.8"/>
			<circle class="st2" cx="361.8" cy="97.8" r="10.8"/>
			<circle class="st0" cx="331.2" cy="97.8" r="10.8"/>
		</g>
		<g>
			<path class="st3" d="M238.3,142.5H191c-6,0-10.8,3.7-10.8,8.3v40.5c0,4.6,4.8,8.3,10.8,8.3h47.4V142.5z"/>
			<path class="st3" d="M291.9,142.5h-47.4v57.1h47.4c6,0,10.8-3.7,10.8-8.3v-40.5C302.7,146.2,297.8,142.5,291.9,142.5z"/>
		</g>
		<g>
			<path class="st3" d="M163.9,192.4c0-0.3,0.1-0.6,0.1-1v-39c0-5.5-4.8-10-10.8-10H97.6c-6,0-10.8,4.5-10.8,10v39
				c0,0.3,0,0.6,0.1,1H163.9z"/>
			<path class="st3" d="M318.9,192.4c0-0.3-0.1-0.6-0.1-1v-39c0-5.5,4.8-10,10.8-10h55.6c6,0,10.8,4.5,10.8,10v39c0,0.3,0,0.6-0.1,1
				H318.9z"/>
		</g>
		<path class="st1" d="M412.3,237.1l0.7,30.5c27.1-0.3,32-31,32-31L412.3,237.1z"/>
		<path class="st1" d="M315,279.7H167.8c-1.3,0-2.3-1.3-2.3-2.9c0-1.6,1-2.9,2.3-2.9H315c1.3,0,2.3,1.3,2.3,2.9
			C317.4,278.4,316.3,279.7,315,279.7z"/>
		<path class="st1" d="M315,292.7H167.8c-1.3,0-2.3-1.3-2.3-2.9c0-1.6,1-2.9,2.3-2.9H315c1.3,0,2.3,1.3,2.3,2.9
			C317.4,291.4,316.3,292.7,315,292.7z"/>
		<path class="st1" d="M315,305.6H167.8c-1.3,0-2.3-1.3-2.3-2.9c0-1.6,1-2.9,2.3-2.9H315c1.3,0,2.3,1.3,2.3,2.9
			C317.4,304.4,316.3,305.6,315,305.6z"/>
		<path class="st1" d="M315,318.6H167.8c-1.3,0-2.3-1.3-2.3-2.9c0-1.6,1-2.9,2.3-2.9H315c1.3,0,2.3,1.3,2.3,2.9
			C317.4,317.3,316.3,318.6,315,318.6z"/>
		<path class="st1" d="M315,331.6H167.8c-1.3,0-2.3-1.3-2.3-2.9c0-1.6,1-2.9,2.3-2.9H315c1.3,0,2.3,1.3,2.3,2.9
			C317.4,330.3,316.3,331.6,315,331.6z"/>
		<path class="st1" d="M315,344.5H167.8c-1.3,0-2.3-1.3-2.3-2.9c0-1.6,1-2.9,2.3-2.9H315c1.3,0,2.3,1.3,2.3,2.9
			C317.4,343.3,316.3,344.5,315,344.5z"/>
		<path class="st1" d="M408.7,382.6H74.2c-6.2,0-11.2,4.8-11.2,10.8v18.5c0,6,5,10.8,11.2,10.8h7.2c0,0.3-0.1,0.5-0.1,0.8v33.7
			c0,6,4.8,10.8,10.8,10.8h16.2c6,0,10.8-4.8,10.8-10.8v-33.7c0-0.3-0.1-0.5-0.1-0.8h6.1c0,0.3-0.1,0.5-0.1,0.8v33.7
			c0,6,4.8,10.8,10.8,10.8h16.2c6,0,10.8-4.8,10.8-10.8v-33.7c0-0.3-0.1-0.5-0.1-0.8H320c0,0.3-0.1,0.5-0.1,0.8v33.7
			c0,6,4.8,10.8,10.8,10.8h16.2c6,0,10.8-4.8,10.8-10.8v-33.7c0-0.3-0.1-0.5-0.1-0.8h6.1c0,0.3-0.1,0.5-0.1,0.8v33.7
			c0,6,4.8,10.8,10.8,10.8h16.2c6,0,10.8-4.8,10.8-10.8v-33.7c0-0.3-0.1-0.5-0.1-0.8h7.2c6.2,0,11.2-4.8,11.2-10.8v-18.5
			C419.9,387.4,414.9,382.6,408.7,382.6z"/>
		<g>
			<circle class="st4" cx="110.1" cy="298.1" r="25.4"/>
			<circle class="st4" cx="372.7" cy="298.1" r="25.4"/>
		</g>
		<g>
			<path class="st1" d="M70.6,226.5l0-0.6h1.3c0,0,0-0.8,0-2.2c-2.6-1.6-4.4-4.5-4.4-7.9v-55.6c0-4.2,2.8-7.7,6.6-8.8
				c0.1-1.1,0.1-2.2,0.2-3.2c-3.1,0.6-5.8,2.5-7.6,5v-11.2H44v39.1h20.4v9H44v39.1h22.6v-6.3C67.7,224.4,69,225.6,70.6,226.5z"/>
			<path class="st1" d="M438.9,181.1V142h-22.6v11.2c-1.8-2.5-4.5-4.3-7.7-5c0.1,1.1,0.1,2.1,0.2,3.2c3.8,1.1,6.6,4.7,6.6,8.8v55.6
				c0,3.3-1.8,6.2-4.4,7.9c0,0.8,0,1.6,0,2.2h1.3l0,0.6c1.5-0.9,2.9-2.1,3.9-3.6v6.3h22.6v-39.1h-20.4v-9L438.9,181.1L438.9,181.1z"
				/>
		</g>
		<path class="st1" d="M69.8,267.6l0.7-30.5l-32.7-0.5C37.9,236.7,42.8,267.3,69.8,267.6z"/>
		<rect x="182.7" y="82.6" class="st1" width="117.4" height="39.1"/>
		<g>
			<path class="st4" d="M195.1,99.2c-0.5-0.6-1.2-1.2-2.2-1.2c-1.2,0-1.7,0.6-1.7,1.2c0,1.2,1,1.3,2.3,1.8c1.3,0.5,3.3,1.4,3.3,3.9
				c0,1.9-1.4,4-4.4,4c-0.6,0-2.7-0.1-4.2-2l1.7-1.8c0.6,1,1.5,1.4,2.5,1.4c1,0,1.7-0.5,1.7-1.4c0-1.2-0.9-1.4-2.2-1.9
				c-1.3-0.4-3.4-1.3-3.4-3.7c0-2.2,1.7-3.9,4.3-3.9c1.9,0,3.2,1.1,3.9,1.8L195.1,99.2z"/>
			<path class="st4" d="M207.4,99.1c-1-0.8-2-1-2.7-1c-2.3,0-4.1,1.8-4.1,4.2c0,2.4,2,4.1,4.2,4.1c0.8,0,1.8-0.3,2.7-1l-0.4,3.1
				c-1.1,0.4-2.1,0.5-2.5,0.5c-3.6,0-6.6-2.8-6.6-6.7c0-4.2,3.4-6.7,6.5-6.7c0.8,0,1.7,0.2,2.6,0.5L207.4,99.1z"/>
			<path class="st4" d="M211.8,100.9h5.2v-5l2.6-0.2v12.8l-2.6,0.2v-5.5h-5.2v5.2l-2.6,0.2V95.9l2.6-0.2V100.9z"/>
			<path class="st4" d="M228.1,95.6c3.8,0,6.8,2.9,6.8,6.7c0,3.7-3.1,6.7-6.8,6.7c-3.8,0-6.8-2.9-6.8-6.7
				C221.2,98.6,224.3,95.6,228.1,95.6z M228.1,106.4c2.3,0,4.2-1.9,4.2-4.2c0-2.3-1.9-4.2-4.2-4.2c-2.3,0-4.2,1.9-4.2,4.2
				C223.9,104.6,225.8,106.4,228.1,106.4z"/>
			<path class="st4" d="M242.8,95.6c3.8,0,6.8,2.9,6.8,6.7c0,3.7-3.1,6.7-6.8,6.7c-3.8,0-6.8-2.9-6.8-6.7
				C235.9,98.6,239,95.6,242.8,95.6z M242.8,106.4c2.3,0,4.2-1.9,4.2-4.2c0-2.3-1.9-4.2-4.2-4.2c-2.3,0-4.2,1.9-4.2,4.2
				C238.5,104.6,240.4,106.4,242.8,106.4z"/>
			<path class="st4" d="M253.8,95.7v10.5h5.2l-0.7,2.4h-7V95.9L253.8,95.7z"/>
			<path class="st4" d="M264.5,95.9c0.9,0,2.7-0.1,3.2-0.1c4,0,4.9,2,4.9,3.5c0,1.1-0.5,2.1-1.6,2.7c1.3,0.4,2.2,1.4,2.2,3.1
				c0,1.9-1.3,3.5-4.5,3.5h-4.2L264.5,95.9L264.5,95.9z M267.1,101.1h1.2c1.1,0,1.6-0.8,1.6-1.4s-0.5-1.4-1.7-1.4h-1.2L267.1,101.1
				L267.1,101.1z M267.1,106.2h1.4c1.7,0,2-1.1,2-1.5c0-0.8-0.6-1.5-2-1.5h-1.4V106.2z"/>
			<path class="st4" d="M284.4,104.1c0,3.9-2.7,4.8-4.7,4.8c-2,0-4.7-0.9-4.7-4.8v-8.2l2.6-0.2v8.6c0,2,1.4,2.2,2,2.2
				c0.6,0,2-0.1,2-2.2v-8.3l2.6-0.2L284.4,104.1L284.4,104.1z"/>
			<path class="st4" d="M292.7,99.2c-0.5-0.6-1.2-1.2-2.1-1.2c-1.2,0-1.7,0.6-1.7,1.2c0,1.2,1,1.3,2.3,1.8c1.3,0.5,3.3,1.4,3.3,3.9
				c0,1.9-1.4,4-4.4,4c-0.6,0-2.7-0.1-4.2-2l1.7-1.8c0.6,1,1.5,1.4,2.5,1.4c1,0,1.7-0.5,1.7-1.4c0-1.2-0.8-1.4-2.2-1.9
				c-1.3-0.4-3.4-1.3-3.4-3.7c0-2.2,1.7-3.9,4.3-3.9c1.9,0,3.2,1.1,3.9,1.8L292.7,99.2z"/>
		</g>
	</g>
	<g>
		<circle class="st1" cx="241.4" cy="63.6" r="4.4"/>
		<circle class="st1" cx="223.9" cy="63.6" r="4.4"/>
		<circle class="st1" cx="258.9" cy="63.6" r="4.4"/>
	</g>
</g>
</svg>
