<?xml version="1.0" encoding="utf-8"?>
<!-- Generator: Adobe Illustrator 22.1.0, SVG Export Plug-In . SVG Version: 6.00 Build 0)  -->
<svg version="1.1" id="Layer_1" xmlns="http://www.w3.org/2000/svg" xmlns:xlink="http://www.w3.org/1999/xlink" x="0px" y="0px"
	 viewBox="0 0 500 500" style="enable-background:new 0 0 500 500;" xml:space="preserve">
<style type="text/css">
	.st0{fill:#EFF0F0;}
	.st1{fill:#1C75BA;}
</style>
<g>
	<path class="st0" d="M339.1,80.7c-0.4,6.1,1.6,12.1,6,16.5c4.5,4.5,10.8,6.5,17.1,6c-2.4,8.5,0.7,19.1,8.7,27.1
		c8,8,18.6,11.1,27.1,8.7c-0.5,6.3,1.4,12.6,6,17.1c4.4,4.4,10.4,6.4,16.5,6l2.9-2.9l8.9-29.7L447,80.3l-28.4-28.4l-47.3,16
		L342,77.8L339.1,80.7z"/>
	<path class="st0" d="M81.2,160.3c6.1,0.4,12.1-1.6,16.5-6c4.5-4.5,6.5-10.8,6-17.1c8.5,2.4,19.1-0.7,27.1-8.7
		c8-8,11.1-18.6,8.7-27.1c6.3,0.5,12.6-1.4,17.1-6c4.4-4.4,6.4-10.4,6-16.5l-2.9-2.9L130,67.1L80.8,52.4L52.4,80.8l16,47.3l9.9,29.3
		L81.2,160.3z"/>
	<polygon class="st1" points="38.5,39.8 52.4,80.8 80.8,52.4 	"/>
	<path class="st1" d="M409.6,371.5L409.6,371.5l-35.8,35.8L351,430.1l26.3,26.3c4.3,4.3,12.2,3.5,17.6-1.9l12.8-12.8l0.3-0.3
		l35.8-35.8l0,0l0.3-0.3l12.8-12.8c5.4-5.4,6.2-13.3,1.9-17.6l-26.3-26.3L409.6,371.5z"/>
	<polygon class="st0" points="432.3,348.5 409.5,325.9 386.9,348.8 386.9,348.8 351.2,384.7 328.4,407.6 351.2,430.2 373.9,407.3 
		409.6,371.4 409.6,371.4 	"/>
	<polygon class="st1" points="459.7,38 418.6,51.9 447,80.3 	"/>
	<path class="st1" d="M128,409.1L128,409.1l-35.8-35.8l-22.8-22.8l-26.3,26.3c-4.3,4.3-3.5,12.2,1.9,17.6l12.8,12.8l0.3,0.3
		l35.8,35.8l0,0l0.3,0.2l12.8,12.8c5.4,5.4,13.3,6.2,17.6,1.9l26.3-26.3L128,409.1z"/>
	<polygon class="st0" points="150.7,431.8 173.4,409.2 150.6,386.4 150.6,386.4 114.8,350.6 92,327.8 69.3,350.5 92.1,373.3 
		127.9,409.1 127.9,409.1 	"/>
	<path class="st1" d="M378.4,249.4c0-13.6-2.3-26.7-6.4-38.9l48.5-48.5c-6.1,0.3-12.1-1.6-16.5-6c-3.6-3.6-5.5-8.2-5.9-13.2
		l-39.8,39.8c-1-1.6-2.1-3.1-3.2-4.6l38.4-38.4c-7.5,0.4-15.9-2.8-22.5-9.4c-6.6-6.6-9.8-15-9.4-22.5l-39.4,39.4c-1.6-1-3.3-2-4.9-3
		l41.1-41.1c-4.9-0.4-9.6-2.3-13.2-5.9c-4.4-4.4-6.4-10.4-6-16.5l-51.5,51.5c-9.7-2.5-19.8-3.8-30.3-3.8c-13.6,0-26.7,2.3-38.9,6.4
		l-55.9-55.9c0.3,6.1-1.6,12.1-6,16.5c-3.6,3.6-8.3,5.5-13.2,5.9l47.2,47.2c-1.6,1-3.1,2.1-4.6,3.2L140.2,106
		c0.4,7.5-2.8,15.9-9.4,22.5c-6.6,6.6-15,9.8-22.5,9.4l46.8,46.8c-1,1.6-2,3.3-3,4.9l-48.5-48.5c-0.4,4.9-2.3,9.6-5.9,13.2
		c-4.4,4.4-10.4,6.4-16.5,6l58.9,58.9c-2.5,9.7-3.8,19.8-3.8,30.3c0,10.4,1.3,20.6,3.8,30.3L92,327.8l20.8,20.8l39.3-39.3
		c1,1.7,1.9,3.3,3,4.9l-38.3,38.3l31.9,31.9l37.3-37.3c1.5,1.1,3.1,2.2,4.7,3.2l-38,38l-2-2h0l22.8,22.8l45.1-45.1
		c12.2,4.2,25.3,6.4,38.9,6.4c10.4,0,20.6-1.3,30.3-3.8l40.7,40.7l20.8-20.8l-31.9-31.9c1.7-1,3.3-1.9,4.9-3l31,31l31.9-31.9
		l-29.9-29.9c1.1-1.5,2.2-3.1,3.2-4.6l30.6,30.6l-2,2l22.8-22.8L372,288.3C376.2,276.1,378.4,263,378.4,249.4z M146.2,249.4
		c0-61.3,49.9-111.1,111.2-111.1s111.1,49.9,111.1,111.1s-49.9,111.1-111.1,111.1C196.1,360.6,146.2,310.7,146.2,249.4z"/>
</g>
</svg>
