<?xml version="1.0" encoding="utf-8"?>
<!-- Generator: Adobe Illustrator 22.1.0, SVG Export Plug-In . SVG Version: 6.00 Build 0)  -->
<svg version="1.1" id="Layer_1" xmlns="http://www.w3.org/2000/svg" xmlns:xlink="http://www.w3.org/1999/xlink" x="0px" y="0px"
	 viewBox="0 0 500 500" style="enable-background:new 0 0 500 500;" xml:space="preserve">
<style type="text/css">
	.st0{fill:#FFAC35;}
	.st1{fill:#231F20;}
	.st2{fill:#EB1C24;}
	.st3{fill:#CFD1D2;}
</style>
<g>
	<path class="st0" d="M108.7,211c4.7,0,318.1,0,318.1,0s23.5-1.3,24.8,14.8c-1.3,0.7-343.6,0.7-343.6,0
		C101.3,218.4,108.7,211,108.7,211z"/>
	<g>
		<path class="st1" d="M77.4,290c-10.8,0-19.5,8.7-19.5,19.5c0,10.8,8.7,19.5,19.5,19.5c10.7,0,19.5-8.7,19.5-19.5
			C96.8,298.7,88.1,290,77.4,290z M77.4,320.2c-5.9,0-10.7-4.8-10.7-10.7c0-5.9,4.8-10.7,10.7-10.7s10.7,4.8,10.7,10.7
			C88.1,315.4,83.3,320.2,77.4,320.2z"/>
		<circle class="st1" cx="77.4" cy="309.4" r="4"/>
		<circle class="st1" cx="77.4" cy="301.7" r="1.5"/>
		<circle class="st1" cx="77.4" cy="317.2" r="1.5"/>
		<circle class="st1" cx="70.7" cy="305.6" r="1.5"/>
		<circle class="st1" cx="84" cy="313.3" r="1.5"/>
		<circle class="st1" cx="70.7" cy="313.3" r="1.5"/>
		<circle class="st1" cx="84" cy="305.6" r="1.5"/>
	</g>
	<g>
		<path class="st1" d="M339.9,290c-10.8,0-19.5,8.7-19.5,19.5c0,10.8,8.7,19.5,19.5,19.5c10.7,0,19.5-8.7,19.5-19.5
			C359.4,298.7,350.7,290,339.9,290z M339.9,320.2c-5.9,0-10.7-4.8-10.7-10.7c0-5.9,4.8-10.7,10.7-10.7c5.9,0,10.7,4.8,10.7,10.7
			C350.6,315.4,345.8,320.2,339.9,320.2z"/>
		<circle class="st1" cx="339.9" cy="309.4" r="4"/>
		<circle class="st1" cx="339.9" cy="301.7" r="1.5"/>
		<circle class="st1" cx="339.9" cy="317.2" r="1.5"/>
		<circle class="st1" cx="333.2" cy="305.6" r="1.5"/>
		<circle class="st1" cx="346.6" cy="313.3" r="1.5"/>
		<circle class="st1" cx="333.2" cy="313.3" r="1.5"/>
		<circle class="st1" cx="346.6" cy="305.6" r="1.5"/>
	</g>
	<path class="st0" d="M452.3,230.2H114.4l-4.4,28.9h-2v44.3h209.2c2.7-10,11.8-17.4,22.7-17.4c10.9,0,20,7.4,22.7,17.4h92.1l1-39.3
		C455.7,264.1,452.3,232.9,452.3,230.2z"/>
	<g>
		<rect x="270" y="236.5" class="st1" width="21.5" height="11"/>
		<rect x="241.2" y="236.5" class="st1" width="21.5" height="11"/>
		<rect x="212.5" y="236.5" class="st1" width="21.5" height="11"/>
		<rect x="298.7" y="236.5" class="st1" width="21.5" height="11"/>
		<rect x="413.7" y="236.5" class="st1" width="21.5" height="11"/>
		<rect x="385" y="236.5" class="st1" width="21.5" height="11"/>
		<rect x="155" y="236.5" class="st1" width="21.5" height="11"/>
		<rect x="356.2" y="236.5" class="st1" width="21.5" height="11"/>
		<rect x="327.5" y="236.5" class="st1" width="21.5" height="11"/>
		<rect x="183.7" y="236.5" class="st1" width="21.5" height="11"/>
		<rect x="155" y="250.2" class="st1" width="21.5" height="11"/>
		<rect x="298.7" y="250.2" class="st1" width="21.5" height="11"/>
		<rect x="356.2" y="250.2" class="st1" width="21.5" height="11"/>
		<rect x="385" y="250.2" class="st1" width="21.5" height="11"/>
		<rect x="413.7" y="250.2" class="st1" width="21.5" height="11"/>
		<rect x="327.5" y="250.2" class="st1" width="21.5" height="11"/>
		<rect x="183.7" y="250.2" class="st1" width="21.5" height="11"/>
		<rect x="270" y="250.2" class="st1" width="21.5" height="11"/>
		<rect x="212.5" y="250.2" class="st1" width="21.5" height="11"/>
		<rect x="241.2" y="250.2" class="st1" width="21.5" height="11"/>
	</g>
	<g>
		<g>
			<path class="st1" d="M307.5,290.9H112.1v2.7h193.9C306.5,292.6,307,291.7,307.5,290.9z"/>
			<path class="st1" d="M373.7,293.6h75.2v-2.7h-76.6C372.8,291.7,373.3,292.6,373.7,293.6z"/>
			<rect x="112.1" y="265.1" class="st1" width="336.7" height="2.7"/>
			<polygon class="st1" points="395.8,278 360.1,278 112.1,278 112.1,280.7 363.8,280.7 392.1,280.7 448.9,280.7 448.9,278 			"/>
		</g>
	</g>
	<polygon class="st2" points="131.5,281.4 125.9,271.6 131.5,261.8 142.9,261.8 148.5,271.6 142.9,281.4 	"/>
	<g>
		<rect x="117.5" y="235.8" class="st3" width="13.7" height="21.9"/>
		<rect x="133.8" y="235.8" class="st3" width="13.7" height="21.9"/>
	</g>
	<path class="st0" d="M56.4,266.7c-4.2,2.9-3.6,11.2-3.6,16.6c-4,3.6-2.7,12.1-2.7,12.1h8.4c4.3-5.7,11.1-9.4,18.7-9.4
		c12.6,0,22.9,10,23.4,22.4l3.3-0.1l0.1-12.8v-36.3C92.6,259.9,63.6,261.8,56.4,266.7z"/>
	<path class="st1" d="M110.4,256.9c-3.7,0-14,0-19.4,0c-0.5,0-0.8-1.2-0.8-2v-18.2c0-1.2,0.8-2.3,1.8-2.7h21.9l0.2-1.1
		c-3.9,0-21.9,0-22,0l-0.2,0.1c-0.8,0.3-1.5,0.8-2,1.5v-3.7h-3.1v12.8h2.4v3h-2.4v12.8h3.1v-2.1c0.3,0.5,1.3,1,1.3,1l19.1,0
		L110.4,256.9z"/>
</g>
</svg>
