<?xml version="1.0" encoding="utf-8"?>
<!-- Generator: Adobe Illustrator 22.1.0, SVG Export Plug-In . SVG Version: 6.00 Build 0)  -->
<svg version="1.1" id="Layer_1" xmlns="http://www.w3.org/2000/svg" xmlns:xlink="http://www.w3.org/1999/xlink" x="0px" y="0px"
	 viewBox="0 0 500 500" style="enable-background:new 0 0 500 500;" xml:space="preserve">
<style type="text/css">
	.st0{fill:#FFAC35;}
	.st1{fill:#231F20;}
	.st2{fill:#FFFFFF;}
</style>
<g>
	<path class="st0" d="M468,201.6c-1.9-22.4-34.5-20.5-34.5-20.5s-326.5,0-333,0c0,0-10.3,4.5-0.9,14.8c0,0,0.9,0.1,2.7,0.1
		l-5.5,36.4H94v0.1c-16.3,1-56,3.7-65.9,10.4c-5.8,4-8.7,57-8.7,57h16.2c3.8-14.9,17.4-26,33.5-26c15.7,0,28.9,10.5,33.2,24.8
		l259.4,1c3.7-13.9,16.4-24.2,31.5-24.2c15.1,0,27.8,10.3,31.5,24.2h41.9l1.4-60.3C468,239.4,467.9,201.6,468,201.6z M290.3,293.8
		c-29.2,0-52.9-23.7-52.9-52.9c0-29.2,23.7-52.9,52.9-52.9c29.2,0,52.9,23.7,52.9,52.9C343.2,270.1,319.5,293.8,290.3,293.8z"/>
	<path class="st1" d="M68.6,281c-14.9,0-27,12.1-27,27s12.1,27,27,27s27-12.1,27-27S83.5,281,68.6,281z M68.6,323
		c-8.2,0-14.9-6.7-14.9-14.9c0-8.2,6.7-14.9,14.9-14.9c8.2,0,14.9,6.7,14.9,14.9C83.5,316.3,76.8,323,68.6,323z"/>
	<circle class="st1" cx="68.6" cy="308" r="5.6"/>
	<circle class="st1" cx="68.6" cy="297.3" r="2.1"/>
	<circle class="st1" cx="68.6" cy="318.8" r="2.1"/>
	<circle class="st1" cx="59.3" cy="302.7" r="2.1"/>
	<circle class="st1" cx="77.9" cy="313.4" r="2.1"/>
	<circle class="st1" cx="59.3" cy="313.4" r="2.1"/>
	<circle class="st1" cx="77.9" cy="302.7" r="2.1"/>
	<g>
		<path class="st1" d="M393.2,281c-14.9,0-27,12.1-27,27s12.1,27,27,27c14.9,0,27-12.1,27-27S408.1,281,393.2,281z M393.2,323
			c-8.2,0-14.9-6.7-14.9-14.9c0-8.2,6.7-14.9,14.9-14.9c8.2,0,14.9,6.7,14.9,14.9C408.1,316.3,401.4,323,393.2,323z"/>
		<circle class="st1" cx="393.2" cy="308" r="5.6"/>
		<circle class="st1" cx="393.2" cy="297.3" r="2.1"/>
		<circle class="st1" cx="393.2" cy="318.8" r="2.1"/>
		<circle class="st1" cx="383.9" cy="302.7" r="2.1"/>
		<circle class="st1" cx="402.4" cy="313.4" r="2.1"/>
		<circle class="st1" cx="383.9" cy="313.4" r="2.1"/>
		<circle class="st1" cx="402.4" cy="302.7" r="2.1"/>
	</g>
	<g>
		<rect x="118.6" y="194.3" class="st2" width="19.1" height="30.5"/>
		<rect x="141.2" y="194.3" class="st2" width="19.1" height="30.5"/>
	</g>
	<path class="st2" d="M216.3,213.3v15.2h18.4c1.2-5.4,3.2-10.5,5.8-15.2H216.3z M176.4,228.5h29.8v-15.2h-29.8V228.5z M176.4,209.6
		h29.8v-15.2h-29.8V209.6z M216.3,209.6h26.5c1-1.6,2.2-3.1,3.4-4.6v-10.7h-29.8V209.6z M345.9,228.5H366v-15.2h-25.9
		C342.7,218,344.7,223.1,345.9,228.5z M376.1,209.6h29.8v-15.2h-29.8V209.6z M416,194.3v15.2h29.8v-15.2H416z M416,228.5h29.8v-15.2
		H416V228.5z M376.1,228.5h29.8v-15.2h-29.8V228.5z M336.1,207.2c0.6,0.8,1.1,1.6,1.7,2.4H366v-15.2h-29.8V207.2z"/>
	<g>
		<path class="st1" d="M124.7,254.3c-0.6-0.8-1.6-1.5-2.8-1.5c-1.5,0-2.2,0.8-2.2,1.6c0,1.5,1.3,1.7,3,2.3c1.7,0.6,4.3,1.8,4.3,5.1
			c0,2.5-1.8,5.2-5.7,5.2c-0.8,0-3.6-0.1-5.4-2.6l2.2-2.4c0.7,1.3,1.9,1.9,3.2,1.9c1.3,0,2.2-0.7,2.2-1.8c0-1.5-1.1-1.8-2.9-2.4
			c-1.7-0.6-4.4-1.7-4.4-4.9c0-2.8,2.2-5.1,5.6-5.1c2.5,0,4.2,1.5,5.1,2.4L124.7,254.3z"/>
		<path class="st1" d="M140.8,254.2c-1.3-1-2.6-1.3-3.6-1.3c-3,0-5.4,2.3-5.4,5.5c0,3.2,2.6,5.4,5.5,5.4c1.1,0,2.4-0.3,3.6-1.4
			l-0.6,4c-1.5,0.6-2.7,0.6-3.3,0.6c-4.7,0-8.6-3.7-8.6-8.7c0-5.4,4.4-8.7,8.5-8.7c1.1,0,2.3,0.2,3.3,0.6L140.8,254.2z"/>
		<path class="st1" d="M146.5,256.4h6.8V250l3.4-0.3v16.8l-3.4,0.3v-7.2h-6.8v6.9l-3.4,0.3V250l3.4-0.3V256.4z"/>
		<path class="st1" d="M167.8,249.6c4.9,0,8.9,3.9,8.9,8.7c0,4.8-4,8.7-8.9,8.7c-4.9,0-8.9-3.9-8.9-8.7
			C158.9,253.4,162.9,249.6,167.8,249.6z M167.8,263.7c3,0,5.5-2.4,5.5-5.4c0-3-2.5-5.4-5.5-5.4c-3,0-5.5,2.4-5.5,5.4
			C162.3,261.3,164.8,263.7,167.8,263.7z"/>
		<path class="st1" d="M187,249.6c4.9,0,8.9,3.9,8.9,8.7c0,4.8-4,8.7-8.9,8.7c-4.9,0-8.9-3.9-8.9-8.7
			C178.1,253.4,182.1,249.6,187,249.6z M187,263.7c3,0,5.5-2.4,5.5-5.4c0-3-2.5-5.4-5.5-5.4c-3,0-5.5,2.4-5.5,5.4
			C181.5,261.3,184,263.7,187,263.7z"/>
		<path class="st1" d="M201.6,249.7v13.8h6.7l-1,3.2h-9.2V250L201.6,249.7z"/>
		<path class="st1" d="M373.8,250c1.1,0,3.6-0.1,4.2-0.1c5.3,0,6.4,2.6,6.4,4.6c0,1.5-0.7,2.8-2.1,3.5c1.6,0.5,2.9,1.9,2.9,4.1
			c0,2.4-1.7,4.6-5.9,4.6h-5.5V250z M377.2,256.7h1.6c1.4,0,2.2-1,2.2-1.9c0-0.8-0.6-1.8-2.2-1.8h-1.5L377.2,256.7L377.2,256.7z
			 M377.2,263.4h1.9c2.3,0,2.6-1.4,2.6-2c0-1-0.8-2-2.6-2h-1.9V263.4z"/>
		<path class="st1" d="M399.7,260.7c0,5.1-3.5,6.3-6.1,6.3c-2.6,0-6.1-1.2-6.1-6.3V250l3.4-0.3v11.2c0,2.6,1.9,2.8,2.6,2.8
			c0.8,0,2.6-0.2,2.6-2.8V250l3.4-0.3L399.7,260.7L399.7,260.7z"/>
		<path class="st1" d="M410.7,254.3c-0.6-0.8-1.6-1.5-2.8-1.5c-1.5,0-2.2,0.8-2.2,1.6c0,1.5,1.3,1.7,3,2.3c1.7,0.6,4.3,1.8,4.3,5.1
			c0,2.5-1.8,5.2-5.7,5.2c-0.8,0-3.6-0.1-5.4-2.6l2.2-2.4c0.7,1.3,1.9,1.9,3.2,1.9c1.3,0,2.2-0.7,2.2-1.8c0-1.5-1.1-1.8-2.9-2.4
			c-1.7-0.6-4.4-1.7-4.4-4.9c0-2.8,2.2-5.1,5.6-5.1c2.5,0,4.2,1.5,5.1,2.4L410.7,254.3z"/>
	</g>
	<path class="st1" d="M233.4,240.8H99.7v3.7h133.8c-0.1-1.2-0.1-2.4-0.1-3.6C233.4,240.9,233.4,240.8,233.4,240.8z M347.2,240.8
		c0,0,0,0.1,0,0.1c0,1.2-0.1,2.4-0.1,3.6h111.5v-3.7H347.2z"/>
	<path class="st1" d="M99.7,269.4v3.7h143.7c-0.8-1.2-1.6-2.5-2.4-3.7H99.7z M339.6,269.4c-0.7,1.3-1.5,2.5-2.4,3.7h121.4v-3.7
		H339.6z"/>
</g>
</svg>
